<?xml version="1.0" standalone="no"?>
<!DOCTYPE svg PUBLIC "-//W3C//DTD SVG 20010904//EN"
 "http://www.w3.org/TR/2001/REC-SVG-20010904/DTD/svg10.dtd">
<svg version="1.0" xmlns="http://www.w3.org/2000/svg"
 width="199.000000pt" height="199.000000pt" viewBox="0 0 199.000000 199.000000"
 preserveAspectRatio="xMidYMid meet">
<metadata>
Created by potrace 1.11, written by Peter Selinger 2001-2013
</metadata>
<g transform="translate(0.000000,199.000000) scale(0.100000,-0.100000)"
fill="#000000" stroke="none">
<path d="M127 1932 c-23 -40 -17 -71 39 -199 10 -25 13 -90 14 -271 0 -224 5
-288 36 -431 5 -25 4 -32 -4 -27 -7 4 -12 13 -12 20 0 18 -43 56 -63 56 -21 0
-47 -38 -47 -69 0 -13 -7 -32 -15 -41 -9 -10 -16 -40 -18 -73 -2 -47 -5 -56
-18 -52 -46 15 -51 -75 -7 -108 26 -20 30 -20 62 -4 l34 16 27 -41 c26 -39 14
-44 -14 -5 -25 35 -101 6 -101 -38 0 -12 -7 -28 -15 -35 -20 -16 -20 -84 0
-100 10 -8 31 -11 60 -7 l44 7 -11 -26 c-10 -22 -9 -28 3 -38 9 -6 19 -23 22
-38 4 -15 17 -32 28 -39 18 -9 26 -6 50 17 16 15 29 36 29 45 0 14 12 19 63
24 51 5 69 3 102 -15 23 -11 42 -30 46 -43 4 -17 12 -22 34 -20 30 2 76 30 82
50 2 6 -49 38 -114 72 -134 70 -223 151 -166 151 9 0 25 8 35 17 19 17 21 16
56 -27 58 -71 149 -156 239 -223 l84 -62 -248 -3 c-143 -1 -251 -6 -257 -12
-6 -6 0 -20 19 -40 l29 -30 -33 -34 c-23 -24 -29 -36 -21 -41 7 -4 161 -10
342 -13 l329 -5 -6 -41 c-9 -57 23 -88 99 -94 75 -6 120 4 156 35 28 23 31 30
25 64 l-7 39 289 0 c294 0 393 6 393 22 0 5 -14 21 -31 35 l-30 26 27 28 c53
56 43 58 -243 61 l-258 3 60 42 c69 47 211 185 257 250 l32 43 21 -20 c12 -11
29 -20 38 -20 57 0 -32 -81 -166 -151 -65 -34 -116 -66 -114 -72 6 -18 51 -46
85 -53 29 -6 32 -4 32 19 0 20 9 30 45 47 38 18 55 21 105 15 53 -6 60 -9 60
-29 0 -13 12 -31 30 -44 36 -27 66 -17 77 26 3 15 13 32 22 38 13 10 13 16 3
38 l-12 27 51 -7 c38 -5 53 -3 60 7 14 22 11 73 -6 95 -8 10 -15 29 -15 40 0
27 -18 42 -58 50 -25 5 -33 2 -47 -20 -10 -14 -21 -26 -26 -26 -5 0 2 18 16
39 26 38 27 38 55 25 56 -28 115 24 94 84 -7 19 -16 26 -29 24 -18 -2 -20 4
-22 54 -2 34 -9 64 -18 74 -8 9 -15 28 -15 42 0 14 -8 36 -18 48 -26 33 -69
21 -87 -24 -8 -19 -21 -36 -30 -39 -19 -8 -19 -14 7 90 20 79 23 114 23 358 2
277 3 291 44 365 17 30 20 105 5 120 -9 9 -22 9 -53 0 -29 -8 -47 -8 -61 0
-22 12 -1597 14 -1603 2z m188 -67 c66 -18 208 -56 315 -85 107 -29 196 -54
198 -55 2 -2 -1 -12 -7 -23 -13 -24 -5 -52 16 -52 8 0 12 -4 8 -10 -3 -5 0
-18 7 -29 11 -17 10 -23 -6 -34 -18 -13 -16 -14 22 -14 44 0 48 3 32 27 -6 10
-4 20 7 32 13 15 14 18 2 18 -8 0 -21 -6 -28 -12 -11 -11 -13 -10 -9 1 2 7 19
19 37 25 50 16 59 37 33 74 -29 40 -29 85 1 105 20 15 0 16 -248 17 l-270 0
-99 30 c-55 17 -102 32 -104 35 -3 3 332 5 743 5 431 0 745 -4 740 -9 -6 -5
-55 -20 -111 -35 -95 -25 -114 -26 -344 -26 -235 0 -243 -1 -227 -18 21 -23
22 -82 2 -108 -34 -45 -8 -74 69 -74 54 0 75 23 51 57 -14 20 -5 23 323 113
185 51 342 93 347 94 19 2 16 -59 -4 -91 -16 -25 -33 -36 -78 -49 -136 -38
-177 -52 -153 -53 29 -1 160 33 190 49 25 13 26 3 4 -44 -17 -35 -23 -38 -179
-76 -36 -9 -34 -9 22 -5 35 3 79 12 99 20 21 8 39 13 41 11 8 -7 -29 -76 -46
-89 -10 -7 -21 -18 -25 -25 -17 -28 45 13 65 44 l20 29 -4 -235 c-4 -214 -6
-244 -31 -340 -44 -173 -75 -256 -125 -332 -65 -100 -198 -233 -306 -305 -79
-53 -98 -61 -154 -66 -74 -8 -105 -29 -97 -63 11 -41 -52 -68 -94 -42 -18 11
-23 9 -45 -17 -13 -17 -24 -24 -25 -17 0 9 -73 12 -330 12 -181 0 -330 3 -330
8 0 4 13 16 30 27 l29 20 -24 25 c-14 15 -25 30 -25 34 0 5 143 6 318 4 276
-3 321 -6 350 -21 17 -10 32 -24 32 -32 0 -8 5 -15 10 -15 20 0 10 40 -14 55
-13 9 -55 19 -93 23 -57 7 -78 14 -131 50 -163 111 -309 256 -375 372 -29 52
-90 232 -113 335 -10 46 -17 148 -21 295 l-5 225 31 -35 c34 -39 42 -33 12 9
-11 15 -23 40 -26 57 -4 16 -14 46 -22 67 -9 20 -14 39 -11 42 3 3 25 -3 49
-14 47 -21 166 -47 175 -39 2 3 -44 18 -102 34 -129 34 -154 52 -161 117 l-6
48 29 -11 c16 -6 83 -26 149 -45z m577 -70 c-2 -15 4 -39 17 -61 29 -48 22
-64 -29 -64 -45 0 -46 1 -24 36 9 13 15 27 12 29 -3 3 -63 21 -134 41 -71 20
-131 38 -133 40 -2 2 63 4 146 4 l150 0 -5 -25z m478 22 c0 -2 -55 -19 -122
-37 -147 -40 -154 -44 -133 -76 8 -13 15 -26 15 -29 0 -9 -64 -5 -80 5 -13 8
-13 13 3 39 9 16 17 45 17 65 l0 36 150 0 c83 0 150 -2 150 -3z m-1207 -783
c10 -14 16 -31 14 -38 -4 -9 5 -16 23 -20 23 -4 31 -13 39 -43 6 -20 9 -39 6
-41 -2 -2 -19 8 -38 22 -43 33 -49 33 -42 -1 5 -26 5 -27 -5 -5 -14 33 -30 18
-30 -28 0 -24 -5 -40 -14 -43 -23 -9 -35 16 -33 66 4 54 20 78 39 59 19 -19
33 -14 15 6 -24 26 -22 93 2 92 3 0 14 -12 24 -26z m1695 14 c17 -17 15 -49
-4 -76 -15 -22 -15 -23 9 -17 15 4 28 2 32 -5 13 -21 14 -88 2 -104 -19 -25
-41 -3 -39 38 2 39 -14 57 -25 29 -6 -16 -8 -15 -13 6 l-5 24 -32 -27 c-41
-35 -47 -33 -38 12 8 45 14 51 46 54 21 2 25 6 21 25 -4 22 12 53 27 53 4 0
12 -5 19 -12z m-41 -180 c-3 -8 -6 -5 -6 6 -1 11 2 17 5 13 3 -3 4 -12 1 -19z
m-1640 -10 c-3 -8 -6 -5 -6 6 -1 11 2 17 5 13 3 -3 4 -12 1 -19z m78 6 c8 3
20 -13 33 -44 l20 -48 -36 -5 c-21 -2 -39 -3 -41 -1 -2 2 -9 28 -16 58 -13 54
-13 55 7 45 11 -6 25 -8 33 -5z m1519 -45 l-16 -54 -44 0 c-24 0 -43 2 -41 5
1 3 11 27 21 53 15 38 23 46 37 42 10 -4 27 -2 36 4 10 5 19 8 20 7 2 -1 -4
-27 -13 -57z m33 9 c-3 -8 -6 -5 -6 6 -1 11 2 17 5 13 3 -3 4 -12 1 -19z
m-1755 -19 c14 -8 27 -8 44 -1 20 10 27 6 59 -34 20 -24 40 -42 45 -39 4 3 11
-5 14 -18 6 -22 7 -22 22 6 16 30 54 37 74 12 17 -21 4 -35 -35 -35 -19 0 -37
-4 -40 -10 -3 -5 13 -35 36 -65 35 -47 57 -64 138 -105 53 -27 106 -56 116
-64 20 -14 19 -15 -5 -24 -21 -8 -27 -6 -34 10 -6 11 -34 31 -64 45 -56 25
-68 26 -179 6 -29 -5 -32 -8 -27 -30 9 -32 -24 -61 -43 -37 -6 9 -9 22 -7 29
3 7 -4 19 -16 25 l-21 11 22 30 21 30 31 -20 c28 -17 37 -18 75 -8 23 6 42 14
42 18 0 8 -113 59 -133 59 -8 0 -17 -9 -20 -20 -3 -13 -14 -20 -30 -20 -14 0
-38 -5 -53 -10 -19 -7 -30 -7 -40 1 -18 15 -18 53 1 69 8 7 15 25 15 40 0 39
36 47 70 16 32 -30 110 -70 110 -56 0 12 -98 160 -105 160 -2 0 -21 -8 -41
-17 -36 -17 -36 -17 -55 6 -18 22 -26 51 -13 51 3 0 15 -5 26 -11z m1835 0 c8
-8 17 -8 31 0 33 17 44 13 40 -15 -5 -40 -31 -52 -67 -31 -16 9 -32 17 -35 17
-8 0 -106 -147 -106 -160 0 -6 12 -2 26 9 15 12 31 21 37 21 6 0 23 12 39 26
26 26 28 26 53 10 14 -9 25 -25 25 -35 0 -11 8 -33 17 -50 25 -43 10 -55 -62
-46 -44 6 -59 12 -62 26 -3 11 -14 19 -24 19 -22 0 -129 -51 -129 -62 0 -4 16
-12 37 -17 30 -9 40 -7 64 9 15 11 29 20 32 20 3 0 16 -14 28 -31 20 -29 21
-32 6 -41 -10 -5 -17 -20 -17 -33 0 -32 -12 -38 -38 -19 -24 17 -29 40 -9 47
24 8 0 17 -79 28 -77 11 -81 11 -131 -15 -28 -14 -54 -34 -58 -45 -4 -13 -12
-17 -25 -14 -51 13 -38 28 76 87 101 52 121 66 160 118 36 47 42 59 30 64 -9
3 -22 4 -30 1 -21 -8 -50 17 -43 37 10 26 54 20 74 -11 l18 -27 12 40 c8 29
12 33 12 15 1 -22 5 -20 37 22 39 50 44 53 61 36z m-90 -21 c-3 -8 -6 -5 -6 6
-1 11 2 17 5 13 3 -3 4 -12 1 -19z m-1552 -246 c-3 -3 -11 0 -18 7 -9 10 -8
11 6 5 10 -3 15 -9 12 -12z m1520 8 c-3 -5 -12 -10 -18 -10 -7 0 -6 4 3 10 19
12 23 12 15 0z m5 -207 c0 -4 -11 -19 -25 -33 l-26 -27 26 -17 c14 -9 25 -21
25 -26 0 -6 -118 -10 -318 -10 -213 0 -322 -4 -329 -11 -13 -13 -53 47 -53 79
0 28 13 35 90 42 88 10 610 12 610 3z m-735 -142 l45 16 22 -35 c36 -58 -4
-92 -109 -92 -51 0 -67 4 -90 24 l-27 24 27 40 27 41 30 -17 c27 -16 33 -16
75 -1z"/>
<path d="M220 1686 c0 -13 79 -37 135 -41 l60 -5 -75 18 c-41 10 -85 22 -97
26 -13 4 -23 5 -23 2z"/>
<path d="M1070 1600 c0 -31 4 -40 18 -40 13 0 17 9 17 40 1 32 -3 40 -17 40
-14 0 -18 -8 -18 -40z"/>
<path d="M950 1604 c0 -37 -2 -40 -80 -104 -63 -52 -169 -110 -201 -110 -21 0
-60 29 -39 30 20 1 104 39 98 45 -6 6 -99 -24 -113 -36 -19 -18 -64 -9 -81 16
-14 21 -24 25 -64 25 -37 0 -55 6 -79 26 -17 14 -47 28 -67 31 l-37 6 6 -169
c6 -177 28 -304 67 -396 11 -26 25 -59 31 -75 8 -22 12 -25 20 -13 7 11 8 8 4
-10 -3 -17 4 -40 26 -74 l31 -49 16 26 c9 15 20 27 25 27 5 0 -1 -14 -13 -30
-21 -30 -21 -32 -4 -58 9 -15 56 -66 103 -113 114 -114 271 -216 370 -238 38
-8 48 -5 139 43 123 64 212 128 279 197 94 98 168 203 157 221 -4 6 -3 8 3 5
14 -9 70 126 100 243 20 74 26 129 30 252 3 86 3 168 -1 183 -6 24 -10 26 -39
20 -18 -4 -42 -16 -54 -28 -15 -14 -41 -22 -78 -25 -43 -4 -57 -9 -70 -28 -16
-24 -61 -33 -80 -15 -15 13 -141 53 -129 41 6 -6 37 -22 70 -35 57 -23 58 -24
32 -34 -47 -18 -113 11 -213 91 -53 43 -92 83 -96 98 -4 14 -7 -53 -8 -147 -1
-95 2 -173 7 -172 15 2 83 89 77 99 -3 5 -18 10 -32 10 l-26 0 23 25 c31 33
46 32 65 -5 25 -48 19 -63 -50 -115 -36 -27 -65 -52 -65 -55 0 -4 9 -15 20
-25 28 -25 28 -95 0 -102 -20 -5 -20 -5 0 -30 26 -33 25 -57 -1 -82 l-21 -19
21 -11 c26 -15 27 -43 1 -66 -27 -24 -25 -43 5 -57 33 -15 35 -62 3 -79 -33
-17 -33 -17 -5 -43 28 -26 27 -53 -3 -81 -18 -16 -18 -18 6 -39 23 -19 24 -23
10 -41 -15 -20 -16 -20 -13 4 1 13 -3 26 -10 28 -8 3 -12 -18 -12 -72 0 -89
-19 -141 -22 -60 -3 112 -9 157 -24 178 -16 23 -21 87 -6 87 6 0 12 -15 14
-32 l4 -33 1 35 c1 19 -5 44 -13 54 -19 25 -19 55 0 62 19 8 19 33 1 40 -8 3
-19 19 -25 35 -8 25 -7 31 15 48 l24 19 -26 17 c-23 15 -26 22 -20 53 3 21 12
42 21 48 21 16 19 29 -10 48 -31 21 -33 64 -4 89 20 18 20 18 14 -26 -5 -29
-3 -47 4 -51 7 -5 11 10 11 47 l0 55 -70 57 c-38 31 -70 65 -70 75 0 9 9 29
21 44 20 26 21 26 50 9 36 -22 37 -31 2 -35 -42 -5 -36 -28 18 -77 l50 -45 -7
185 c-4 101 -8 186 -10 188 -2 2 -4 -9 -4 -25z m-10 -135 c0 -35 -2 -40 -17
-34 -50 21 -61 18 -93 -26 -17 -25 -29 -51 -27 -61 6 -23 2 -23 -40 3 l-34 21
57 35 c32 19 76 50 98 69 22 19 43 34 48 34 4 0 8 -18 8 -41z m160 2 c23 -19
24 -21 5 -21 -11 0 -31 -7 -43 -16 -22 -15 -22 -15 -22 31 0 50 4 50 60 6z
m-735 9 c14 -16 16 -23 7 -32 -29 -29 6 -98 50 -98 26 0 58 36 58 65 0 14 4
25 9 25 6 0 22 -11 37 -25 15 -14 39 -25 54 -25 15 0 38 -9 51 -20 22 -18 22
-19 5 -20 -54 -1 -76 -76 -31 -106 52 -34 112 15 87 71 -11 24 -9 23 48 -13
33 -20 70 -45 82 -54 l22 -16 -27 -13 c-15 -7 -30 -23 -34 -36 -14 -56 42
-101 90 -71 20 12 24 11 43 -8 27 -28 13 -48 -22 -32 -28 13 -68 -9 -79 -42
-8 -26 -11 -26 -71 13 l-52 33 19 23 c23 28 24 49 3 79 -28 40 -95 22 -105
-30 -3 -14 -13 -11 -61 19 l-57 36 19 25 c24 30 25 50 4 80 -28 40 -104 18
-104 -30 0 -23 -3 -23 -50 8 l-40 27 0 93 c0 101 8 114 45 74z m1289 -62 c6
-92 -4 -238 -18 -239 -4 -1 -57 45 -117 101 l-109 102 29 27 c20 19 46 30 78
35 26 3 64 17 83 31 19 14 38 25 41 25 4 0 9 -37 13 -82z m-1204 -3 c0 -28
-13 -39 -39 -30 -25 8 -33 42 -14 60 20 21 53 2 53 -30z m770 -27 c19 -10 48
-18 64 -18 29 0 26 -5 -79 -110 -60 -60 -113 -110 -117 -110 -5 0 -8 6 -8 13
0 6 -7 24 -14 39 -14 27 -14 29 32 65 26 20 53 44 60 52 18 22 15 59 -10 94
l-23 32 30 -20 c17 -10 46 -27 65 -37z m102 -61 c-43 -44 -50 -55 -40 -67 11
-12 10 -12 -6 0 -17 13 -24 9 -85 -57 -36 -39 -74 -74 -84 -77 -11 -3 -15 -11
-11 -17 5 -8 3 -9 -6 -4 -10 6 25 46 130 147 79 76 146 135 149 133 3 -3 -19
-29 -47 -58z m-382 18 c0 -9 -6 -12 -16 -8 -13 5 -13 7 -2 14 17 11 18 11 18
-6z m130 1 c0 -2 -7 -6 -15 -10 -8 -3 -15 -1 -15 4 0 6 7 10 15 10 8 0 15 -2
15 -4z m-410 -31 c17 -20 8 -49 -16 -53 -27 -4 -47 21 -39 48 7 23 37 27 55 5z
m-170 -20 c17 -20 8 -49 -16 -53 -27 -4 -47 21 -39 48 7 23 37 27 55 5z m854
-14 c3 -5 -1 -14 -8 -20 -16 -13 -32 2 -21 19 8 12 22 13 29 1z m95 -75 l-52
-74 -120 -1 c-67 -1 -119 0 -116 3 2 3 55 6 117 7 l113 1 41 62 c36 53 55 75
66 76 1 0 -21 -33 -49 -74z m-69 60 c0 -2 -8 -10 -17 -17 -16 -13 -17 -12 -4
4 13 16 21 21 21 13z m-1030 -36 c0 -5 -2 -10 -4 -10 -3 0 -8 5 -11 10 -3 6
-1 10 4 10 6 0 11 -4 11 -10z m971 -7 c13 -16 12 -17 -3 -4 -17 13 -22 21 -14
21 2 0 10 -8 17 -17z m-26 -20 c13 -16 25 -31 25 -35 0 -5 -28 -8 -62 -8 l-62
0 34 35 c19 19 36 35 37 35 2 0 15 -12 28 -27z m245 -8 l34 -35 -62 0 -62 0
22 35 c13 19 25 35 29 35 3 0 20 -16 39 -35z m-1169 7 c-5 -10 -18 -25 -28
-33 -12 -10 -11 -5 6 19 24 35 38 43 22 14z m507 -46 c-4 -27 -38 -33 -55 -10
-17 23 -16 29 3 49 15 15 18 15 36 -1 10 -10 18 -27 16 -38z m526 39 c-4 -8
-10 -15 -14 -15 -4 0 -10 7 -14 15 -4 10 1 15 14 15 13 0 18 -5 14 -15z m-964
-25 c0 -11 -62 -90 -70 -90 -20 0 -16 51 8 84 21 30 27 33 43 23 11 -7 19 -14
19 -17z m263 -11 c14 -22 2 -49 -22 -49 -27 0 -47 36 -30 56 15 18 38 15 52
-7z m-240 -12 c-42 -67 -88 -127 -96 -127 -5 0 2 15 15 33 13 17 37 49 52 70
27 35 46 52 29 24z m76 -36 c11 -7 8 -17 -18 -53 -26 -37 -37 -44 -57 -40 -22
4 -24 1 -24 -31 0 -19 -6 -40 -14 -46 -11 -9 -16 -6 -25 19 -10 29 -7 37 40
106 52 77 51 77 98 45z m1034 22 c-29 -2 -77 -2 -105 0 -29 2 -6 3 52 3 58 0
81 -1 53 -3z m-1037 -107 c-25 -35 -46 -73 -46 -83 0 -15 2 -16 10 -3 8 13 10
12 10 -2 0 -19 -33 -58 -49 -58 -5 0 -12 7 -15 16 -5 14 -4 15 9 4 20 -16 19
-6 -1 14 -8 9 -11 16 -5 16 6 0 11 6 11 14 0 7 13 27 29 44 16 17 42 49 57 71
15 23 29 39 32 37 2 -3 -16 -34 -42 -70z m1098 47 c-17 -74 -70 -213 -80 -213
-7 0 -354 218 -368 231 -6 5 91 9 222 9 l232 0 -6 -27z m-822 -95 c112 -70
139 -92 100 -81 -10 2 -24 -3 -31 -11 -11 -13 -11 -16 0 -17 8 -1 3 -4 -11 -8
-14 -4 -24 -13 -23 -19 2 -6 -8 -19 -20 -29 -13 -10 -22 -24 -19 -31 2 -6 -2
-12 -10 -12 -7 0 -22 -7 -33 -16 -19 -14 -19 -15 10 -39 l30 -24 -30 -1 c-16
-1 -60 -1 -97 0 -59 1 -67 -1 -73 -19 -3 -12 -11 -21 -16 -21 -16 0 -10 14 22
50 17 19 27 29 23 21 -5 -11 -3 -13 10 -8 10 4 20 7 22 7 2 0 4 5 4 10 0 6 -4
10 -10 10 -5 0 -29 13 -52 29 -24 15 -62 41 -85 56 -43 28 -61 55 -24 35 47
-25 111 -7 172 49 l32 30 36 -34 c28 -28 43 -35 75 -35 36 0 76 21 76 41 0 4
-16 18 -37 30 l-36 22 -24 -27 c-12 -15 -23 -23 -23 -18 0 4 9 18 20 29 l19
22 -89 56 c-50 31 -90 59 -90 62 0 3 15 -4 33 -16 17 -11 85 -53 149 -93z
m295 94 c9 -6 7 -11 -7 -20 -17 -11 -20 -10 -20 8 0 21 7 25 27 12z m-457 -44
c0 -5 -24 -43 -52 -83 -51 -71 -77 -90 -69 -49 2 10 4 33 5 51 1 17 16 51 34
77 32 45 34 45 58 30 13 -9 24 -21 24 -26z m257 6 c11 -17 11 -23 -1 -40 -12
-15 -18 -17 -33 -8 -23 14 -28 41 -12 60 15 18 28 14 46 -12z m243 -9 c6 -8
10 -22 8 -32 -5 -25 -51 -25 -56 0 -8 42 23 63 48 32z m-467 -8 c-32 -53 -110
-156 -117 -157 -5 0 -2 8 6 18 8 9 36 47 62 85 26 37 49 67 52 67 3 0 1 -6 -3
-13z m570 -39 c40 -26 47 -34 35 -42 -29 -21 -40 -54 -27 -78 15 -29 28 -38
56 -38 29 0 53 26 53 57 l0 25 38 -23 c56 -34 58 -37 29 -59 -35 -28 -35 -64
0 -96 l26 -24 -29 -33 c-16 -17 -30 -34 -31 -36 -1 -2 -15 6 -32 18 l-30 21
25 25 c28 28 30 52 8 83 -29 42 -104 18 -104 -35 0 -12 -2 -23 -5 -23 -3 0
-32 17 -64 37 l-59 37 32 15 c43 22 48 70 10 100 -34 27 -39 26 -71 -5 -17
-17 -24 -33 -21 -49 5 -23 4 -23 -17 -7 -22 17 -22 17 -4 41 21 26 25 56 9 66
-5 3 -10 10 -10 16 0 5 9 0 20 -11 11 -11 30 -20 42 -20 27 0 58 27 58 52 0
24 5 23 63 -14z m-512 1 c25 -17 28 -24 18 -36 -11 -12 -14 -12 -21 1 -13 22
-38 20 -67 -6 -23 -21 -22 -20 5 19 16 24 31 43 32 43 2 0 17 -9 33 -21z m194
-30 c11 -17 0 -20 -21 -4 -17 13 -17 14 -2 15 9 0 20 -5 23 -11z m-91 -35 c22
-9 10 -24 -20 -24 -23 0 -31 10 -17 23 8 9 17 9 37 1z m496 -13 c15 -30 2 -53
-29 -49 -26 3 -38 26 -27 54 8 20 44 17 56 -5z m-162 -39 c-2 -21 -8 -27 -28
-27 -18 0 -26 6 -28 23 -5 34 15 54 40 41 13 -7 18 -19 16 -37z m-684 -64 c-4
-6 -10 -5 -15 3 -14 22 -10 33 6 19 8 -7 12 -17 9 -22z m396 22 c0 -5 -4 -10
-10 -10 -5 0 -10 5 -10 10 0 6 5 10 10 10 6 0 10 -4 10 -10z m21 -33 c-13 -13
-68 -14 -81 -1 -7 7 2 9 24 6 21 -2 38 2 47 11 8 8 16 11 18 5 2 -5 -2 -15 -8
-21z m587 -15 c-2 -21 -8 -27 -28 -27 -20 0 -26 6 -28 29 -4 34 14 49 41 35
12 -7 17 -19 15 -37z m-554 16 c-18 -31 -126 -178 -131 -178 -4 0 41 66 111
163 20 28 33 37 20 15z m328 -105 c58 -38 105 -70 103 -72 -3 -2 -16 4 -30 13
l-25 16 -66 -90 c-36 -49 -68 -90 -71 -90 -7 0 17 38 78 121 l48 67 -105 67
c-57 37 -104 69 -104 72 0 3 15 -5 33 -16 17 -12 80 -51 139 -88z m81 76 c14
-22 2 -49 -22 -49 -27 0 -47 36 -30 56 15 18 38 15 52 -7z m-765 -7 l23 -18
-22 -28 -22 -28 -22 28 c-18 23 -20 32 -11 46 14 22 25 22 54 0z m282 -12 c0
-5 -32 -54 -71 -110 -62 -88 -73 -99 -90 -90 -10 6 -19 13 -19 15 0 3 15 28
33 55 24 38 38 50 58 50 36 0 50 17 38 47 -5 14 -7 29 -3 34 7 12 54 12 54 -1z
m246 -5 c4 -8 1 -22 -6 -30 -11 -14 -15 -13 -27 5 -8 11 -11 25 -8 30 9 15 35
12 41 -5z m-177 -31 c-5 -15 -7 -34 -4 -43 5 -16 -109 -191 -125 -191 -3 0
-14 6 -23 13 -16 11 -14 18 29 77 133 183 143 194 123 144z m206 -1 c-41 -64
-71 -103 -78 -103 -8 0 11 30 61 98 30 39 41 43 17 5z m49 -24 c-2 -26 -139
-212 -142 -194 -2 9 6 27 17 39 12 12 21 28 21 36 0 20 83 140 95 136 6 -2 10
-9 9 -17z m22 -27 c-17 -16 -18 -16 -5 5 7 12 15 20 18 17 3 -2 -3 -12 -13
-22z m-548 -22 c-26 -35 -34 -37 -43 -10 -9 28 2 40 36 40 l30 0 -23 -30z m35
-1 c-10 -17 -24 -36 -32 -42 -12 -10 -13 -9 -6 3 14 24 48 70 52 70 2 0 -4
-14 -14 -31z m502 -95 c-37 -55 -78 -105 -91 -112 -13 -7 -24 -10 -24 -7 0 7
125 190 148 218 9 10 19 14 25 8 5 -5 -18 -48 -58 -107z m-251 84 c-24 -42
-108 -158 -111 -154 -4 4 108 166 115 166 2 0 0 -6 -4 -12z m216 -33 c-17 -25
-33 -45 -36 -45 -3 0 9 20 26 45 17 25 33 45 36 45 3 0 -9 -20 -26 -45z m-196
-14 c-5 -22 -10 -29 -17 -22 -7 7 -7 19 2 37 15 34 23 26 15 -15z m-164 25 c0
-2 -8 -10 -17 -17 -16 -13 -17 -12 -4 4 13 16 21 21 21 13z m534 -4 c3 -5 -7
-20 -22 -33 -57 -52 -66 -54 -32 -6 33 47 44 55 54 39z m-407 -132 c-29 -42
-34 -45 -56 -31 -11 7 -7 18 19 56 29 42 34 45 48 31 14 -14 13 -19 -11 -56z
m136 -14 c-32 -46 -59 -83 -61 -81 -4 4 108 165 114 165 3 0 -21 -38 -53 -84z
m-120 -20 c-27 -38 -36 -31 -11 9 13 19 24 30 26 25 2 -5 -5 -21 -15 -34z"/>
<path d="M333 1563 c20 -2 54 -2 75 0 20 2 3 4 -38 4 -41 0 -58 -2 -37 -4z"/>
<path d="M1567 1563 c18 -2 50 -2 70 0 21 2 7 4 -32 4 -38 0 -55 -2 -38 -4z"/>
<path d="M425 1520 c-36 -6 -33 -7 25 -8 36 0 83 3 105 7 37 8 35 9 -25 8 -36
0 -83 -3 -105 -7z"/>
<path d="M1425 1520 c81 -13 155 -18 155 -10 0 9 -90 20 -155 19 l-50 -1 50
-8z"/>
<path d="M668 1497 c-32 -6 -58 -14 -58 -20 0 -5 10 -7 23 -4 12 3 43 9 70 12
26 4 47 11 47 16 0 10 -3 10 -82 -4z"/>
<path d="M1220 1502 c0 -5 20 -12 45 -15 25 -4 56 -9 70 -13 14 -3 25 -2 25 4
0 5 -20 12 -45 15 -25 4 -56 9 -70 13 -14 3 -25 2 -25 -4z"/>
<path d="M962 1030 c0 -19 2 -27 5 -17 2 9 2 25 0 35 -3 9 -5 1 -5 -18z"/>
<path d="M1010 796 c0 -8 4 -17 9 -20 10 -7 23 19 14 28 -11 11 -23 6 -23 -8z"/>
<path d="M1010 664 c0 -14 4 -23 10 -19 6 3 10 15 10 26 0 10 -4 19 -10 19 -5
0 -10 -12 -10 -26z"/>
</g>
</svg>
